<?xml version="1.0" encoding="UTF-8"?>
<svg xmlns="http://www.w3.org/2000/svg" viewBox="0 0 56.7 56.7"><path fill="none" stroke="#333" stroke-linecap="round" stroke-linejoin="round" d="M41.8 6.2h-29c-2-.1-3.7 1.5-3.8 3.5v34.2c0 .2.1 3.8 3.8 3.8H44c2 .1 3.7-1.5 3.8-3.5V10c.1-2-1.5-3.7-3.5-3.7h-3.2m2.8 25.1V12.5c.1-1.3-1-2.4-2.3-2.5H15.3c-1.3-.1-2.4 1-2.5 2.3v12m0 10.9v4.3c0 1.3 1 2.4 2.3 2.4h26.3c1.3.1 2.4-1 2.5-2.3v-4.5M31.7 50.5h3.2m5.3 0h3.2m-15-34.4c3.6 0 6.5 2.9 6.5 6.5s-2.9 6.5-6.5 6.5-6.5-2.9-6.5-6.5 2.8-6.5 6.5-6.5zm0 4.4c1.2 0 2.1 1 2.1 2.1s-1 2.1-2.1 2.1-2.1-1-2.1-2.1.9-2.1 2.1-2.1zm-.2 7.3c.8-.8.8-2.2 0-3m-4.9-.9c1 .6 2.4.2 2.9-.8m-.8-4.8c-.2 1.2.6 2.3 1.8 2.5m4.2-2.4c-1.2.2-2 1.3-1.8 2.5m3.7 3.3c-.5-1.1-1.8-1.5-2.9-.9M12.8 35.2h10.9m9.3 0h10.9m-31.1-7.1c.9 0 1.6.7 1.6 1.6s-.7 1.6-1.6 1.6-1.6-.7-1.6-1.6.7-1.6 1.6-1.6zm13.9 7.1H30" style="stroke: #28323c;"/></svg>
